<?xml version="1.0" standalone="no"?>
<!DOCTYPE svg PUBLIC "-//W3C//DTD SVG 20010904//EN"
 "http://www.w3.org/TR/2001/REC-SVG-20010904/DTD/svg10.dtd">
<svg version="1.0" xmlns="http://www.w3.org/2000/svg"
 width="1200.000000pt" height="1200.000000pt" viewBox="0 0 1200.000000 1200.000000"
 preserveAspectRatio="xMidYMid meet">
<metadata>
Created by potrace 1.14, written by Peter Selinger 2001-2017
</metadata>
<g transform="translate(0.000000,1200.000000) scale(0.100000,-0.100000)"
fill="#000000" stroke="none">
<path d="M9215 8640 c-276 -62 -497 -263 -584 -533 -56 -172 -41 -395 39 -566
l30 -64 -22 -25 c-13 -13 -294 -296 -626 -627 l-603 -604 -47 20 c-151 66
-298 87 -455 66 -176 -24 -384 -147 -493 -294 -16 -21 -33 -43 -39 -49 -5 -6
-21 -33 -34 -60 l-25 -49 -165 33 c-91 18 -179 35 -196 38 -29 4 -95 17 -105
19 -9 3 -85 18 -105 21 -11 2 -42 8 -70 14 -60 12 -240 47 -275 54 -14 3 -74
14 -135 26 -60 12 -124 24 -140 27 -28 4 -33 12 -58 84 -97 282 -343 485 -637
526 -416 58 -813 -235 -880 -651 -23 -140 2 -341 55 -443 8 -15 15 -33 15 -40
0 -7 -37 -48 -82 -92 l-82 -81 -863 0 c-475 0 -863 -2 -863 -5 0 -3 18 -31 40
-63 22 -31 99 -145 172 -252 72 -107 144 -213 160 -234 35 -48 35 -58 1 -82
-40 -28 -141 -133 -175 -182 -83 -120 -136 -294 -136 -445 0 -97 10 -158 42
-257 l24 -73 -64 -96 -64 -96 131 -3 132 -3 36 -35 c91 -90 239 -173 356 -200
128 -30 237 -30 386 1 109 22 257 106 358 202 l34 33 456 0 c251 0 1832 0
3514 0 1681 0 3057 3 3057 6 0 2 -29 46 -63 97 -35 51 -142 207 -237 347 -95
140 -202 296 -237 347 -35 50 -63 94 -63 97 0 2 21 35 47 73 111 164 217 319
318 468 60 88 137 201 172 252 35 50 63 94 63 97 0 3 -537 6 -1193 6 l-1194 0
7 45 c14 90 2 226 -29 323 l-18 59 657 658 658 657 35 -11 c72 -24 114 -30
217 -32 105 -1 152 6 253 38 211 66 384 221 478 428 15 35 31 78 34 96 3 18 8
35 10 39 21 34 27 234 10 325 -71 369 -378 631 -750 640 -78 2 -133 -2 -190
-15z m269 -540 c87 -38 146 -129 146 -225 0 -208 -228 -324 -397 -203 -59 43
-106 136 -102 204 7 120 78 209 190 238 61 15 105 12 163 -14z m-5007 -1958
c135 -70 178 -237 95 -361 -84 -125 -244 -149 -367 -55 -39 29 -80 105 -89
160 -7 51 13 132 45 178 21 31 100 91 120 91 4 0 10 3 14 7 16 15 140 2 182
-20z m2705 -391 c117 -59 169 -197 118 -315 l-19 -46 -210 0 -210 0 -17 32
c-9 18 -19 59 -22 93 -15 191 186 323 360 236z m-2007 -211 c289 -58 365 -72
394 -76 19 -3 37 -6 40 -8 4 -3 24 -7 46 -11 22 -3 92 -17 155 -29 l115 -24
-487 -1 c-269 -1 -488 1 -488 2 0 2 11 17 26 33 14 16 39 53 57 81 35 58 25
56 142 33z"/>
</g>
</svg>
